<svg width="176" height="146" viewBox="0 0 176 146" fill="none" xmlns="http://www.w3.org/2000/svg">
<ellipse cx="137.347" cy="54.3685" rx="9.14815" ry="9.16667" transform="rotate(-15 137.347 54.3685)" fill="white"/>
<path fill-rule="evenodd" clip-rule="evenodd" d="M28.7496 43.3171L13.7956 47.324L34.1693 123.36C37.0281 134.029 47.9949 140.361 58.6642 137.502L155.972 111.428C166.642 108.569 172.973 97.6026 170.114 86.9333L167.261 76.2834L150.302 80.8274C140.898 83.3472 131.232 77.7665 128.712 68.3624C126.192 58.9584 131.773 49.2922 141.177 46.7724L158.136 42.2283L154.917 30.2161C152.058 19.5468 141.092 13.2152 130.422 16.074L42.3441 39.6744L50.3778 69.6567C51.3837 73.4107 49.1559 77.2694 45.4019 78.2753C41.6478 79.2811 37.7892 77.0533 36.7833 73.2993L28.7496 43.3171Z" fill="white" fill-opacity="0.2"/>
<path fill-rule="evenodd" clip-rule="evenodd" d="M14.954 35.3336L0 39.3405L20.3737 115.376C23.2325 126.046 34.1993 132.377 44.8686 129.518L142.177 103.445C152.846 100.586 159.178 89.6191 156.319 78.9498L153.465 68.2998L136.506 72.8439C127.102 75.3637 117.436 69.783 114.916 60.3789C112.397 50.9749 117.977 41.3087 127.381 38.7889L144.34 34.2448L141.121 22.2326C138.263 11.5633 127.296 5.23164 116.627 8.09048L28.5485 31.6909L36.5822 61.6732C37.5881 65.4272 35.3603 69.2859 31.6063 70.2917C27.8522 71.2976 23.9936 69.0698 22.9877 65.3158L14.954 35.3336Z" fill="white"/>
</svg>
