<svg width="20" height="20" viewBox="0 0 20 20" fill="none" xmlns="http://www.w3.org/2000/svg">
<path fill-rule="evenodd" clip-rule="evenodd" d="M17.5124 0.0978622H13.2196V2.24424H17.5124V6.53701H19.6587V2.24424C19.6587 1.06373 18.6929 0.0978622 17.5124 0.0978622ZM6.78048 2.24425H2.48772V6.53701H0.341334V2.24425C0.341334 1.06374 1.30721 0.0978651 2.48772 0.0978651H6.78048V2.24425ZM0.341309 12.9762H2.48769V17.2689H6.78045V19.4153H2.48769C1.30718 19.4153 0.341309 18.4494 0.341309 17.2689V12.9762ZM9.99999 5.46381C7.62824 5.46381 5.70723 7.38483 5.70723 9.75658C5.70723 12.1283 7.62824 14.0493 9.99999 14.0493C12.3717 14.0493 14.2928 12.1283 14.2928 9.75658C14.2928 7.38483 12.3717 5.46381 9.99999 5.46381ZM7.85368 9.75658C7.85368 10.9371 8.81955 11.903 10.0001 11.903C11.1806 11.903 12.1464 10.9371 12.1464 9.75658C12.1464 8.57607 11.1806 7.6102 10.0001 7.6102C8.81955 7.6102 7.85368 8.57607 7.85368 9.75658ZM13.2196 17.2689H17.5124V12.9762H19.6587V17.2689C19.6587 18.4494 18.6929 19.4153 17.5124 19.4153H13.2196V17.2689Z" fill="#25282B"/>
</svg>
