<svg width="319" height="319" viewBox="0 0 319 319" fill="none" xmlns="http://www.w3.org/2000/svg">
<rect width="319" height="319" fill="#C4C4C4"/>
<path fill-rule="evenodd" clip-rule="evenodd" d="M164.83 153H168C169.1 153 170 153.9 170 155V167C170 168.1 169.1 169 168 169H152C150.9 169 150 168.1 150 167V155C150 153.9 150.9 153 152 153H155.17L157 151H163L164.83 153ZM152 167H168V155H163.95L162.12 153H157.88L156.05 155H152V167ZM160 156C157.24 156 155 158.24 155 161C155 163.76 157.24 166 160 166C162.76 166 165 163.76 165 161C165 158.24 162.76 156 160 156ZM157 161C157 162.65 158.35 164 160 164C161.65 164 163 162.65 163 161C163 159.35 161.65 158 160 158C158.35 158 157 159.35 157 161Z" fill="black" fill-opacity="0.54"/>
</svg>
